<?xml version="1.0" standalone="no"?>
<!DOCTYPE svg PUBLIC "-//W3C//DTD SVG 20010904//EN"
 "http://www.w3.org/TR/2001/REC-SVG-20010904/DTD/svg10.dtd">
<svg version="1.0" xmlns="http://www.w3.org/2000/svg"
 width="500.000000pt" height="474.000000pt" viewBox="0 0 500.000000 474.000000"
 preserveAspectRatio="xMidYMid meet">
<metadata>
Created by potrace 1.15, written by Peter Selinger 2001-2017
</metadata>
<g transform="translate(0.000000,474.000000) scale(0.100000,-0.100000)"
fill="#000000" stroke="none">
<path d="M660 4653 c0 -3 11 -25 25 -49 24 -40 102 -108 193 -167 23 -15 42
-29 42 -32 0 -2 -55 -4 -122 -4 -137 1 -232 -10 -265 -31 l-22 -14 31 -19 c17
-10 49 -22 72 -26 l41 -7 -50 -29 c-94 -54 -160 -109 -262 -216 -136 -140
-140 -146 -174 -239 -35 -97 -69 -353 -48 -366 5 -3 9 -14 9 -24 0 -23 76 -99
107 -106 13 -4 34 -3 48 0 32 8 39 -17 33 -117 -4 -76 -55 -233 -88 -272 -24
-28 -15 -49 12 -27 51 43 118 208 118 293 0 24 4 38 10 34 6 -3 10 3 10 14 0
12 5 21 10 21 6 0 10 -15 10 -34 0 -42 9 -68 21 -60 5 3 9 0 9 -6 0 -6 5 -8
10 -5 11 7 7 60 -10 115 -12 42 -12 40 0 40 11 0 26 -53 35 -125 3 -27 11 -55
17 -62 6 -8 8 -35 4 -70 -9 -78 -56 -263 -72 -287 -12 -17 -13 -12 -11 40 2
53 0 59 -18 60 -11 0 -26 -4 -33 -9 -14 -11 -14 -11 -28 18 -8 17 -15 19 -49
14 l-40 -6 38 -2 c38 -1 38 -2 32 -32 -6 -29 -5 -30 15 -24 19 6 21 4 15 -17
l-7 -23 26 24 c14 14 29 21 33 17 4 -4 3 -10 -3 -14 -6 -4 -11 -29 -11 -57 0
-44 -7 -69 -38 -150 -20 -50 17 7 64 100 49 97 101 253 101 306 0 14 3 29 6
32 7 7 10 29 20 198 5 85 3 122 -6 139 -11 20 -10 25 6 37 26 19 176 17 215
-3 17 -8 47 -14 67 -12 32 2 37 0 35 -17 -7 -74 -5 -123 6 -143 11 -21 10 -27
-11 -49 -22 -25 -22 -25 -1 -14 31 16 56 14 49 -4 -4 -12 0 -14 22 -9 l27 5
-27 -21 c-16 -12 -28 -28 -28 -35 0 -7 -6 -15 -12 -18 -9 -3 -4 -12 14 -26 44
-36 136 -185 142 -230 3 -23 0 -43 -6 -47 -16 -10 0 -323 18 -349 8 -11 14
-25 14 -31 0 -7 30 -53 68 -102 37 -50 96 -138 132 -197 36 -59 73 -116 83
-128 16 -21 16 -20 0 18 -37 83 -148 258 -226 355 -7 8 -14 18 -15 22 -2 4
-14 31 -27 60 -18 41 -25 79 -31 165 -7 118 1 227 17 218 12 -8 12 8 -1 21 -6
6 -3 10 10 11 14 1 17 -3 13 -15 -4 -9 10 -1 29 18 20 20 62 45 99 59 35 14
96 45 134 70 39 25 86 53 105 62 19 9 62 34 95 55 33 21 69 45 80 51 34 22 90
51 98 52 4 0 15 7 23 16 9 8 23 15 31 15 9 0 14 3 11 6 -3 3 17 26 44 52 27
25 45 48 39 50 -6 2 -25 -10 -43 -27 -18 -17 -39 -29 -46 -26 -7 3 -10 0 -7
-5 3 -5 -7 -15 -22 -22 -15 -7 -38 -21 -49 -33 -21 -19 -333 -208 -384 -232
-166 -78 -223 -102 -231 -97 -5 3 -9 -2 -9 -10 0 -9 -4 -16 -10 -16 -5 0 -10
9 -10 20 0 12 -5 17 -14 14 -12 -5 -66 51 -66 69 0 3 -14 27 -31 52 -17 25
-30 47 -28 49 10 8 131 26 139 21 6 -3 10 -1 10 5 0 6 5 8 10 5 6 -3 10 -2 10
3 0 12 58 36 82 35 10 -1 18 2 18 7 0 5 25 20 55 34 30 14 55 30 55 36 0 6 4
8 10 5 5 -3 25 5 43 19 19 14 37 23 40 19 4 -3 7 1 7 9 0 9 8 22 18 29 15 13
16 12 3 -3 -22 -29 3 -21 30 9 18 20 19 24 4 13 -18 -14 -19 -14 -7 2 8 9 19
15 26 12 7 -3 35 15 63 40 28 25 54 42 58 38 5 -4 5 -2 2 5 -4 6 5 21 20 33
16 12 28 25 28 28 1 14 22 39 77 90 45 41 64 52 91 52 33 0 34 -2 66 -84 18
-47 30 -89 27 -95 -4 -5 -2 -12 4 -16 5 -3 10 -15 10 -26 0 -25 5 -24 36 5 26
23 76 43 147 56 32 6 65 -1 195 -46 86 -30 165 -59 175 -65 11 -6 21 -8 24 -5
3 2 22 -2 44 -9 22 -8 46 -12 53 -9 8 3 48 1 88 -5 97 -14 565 -23 603 -12 21
7 -18 10 -135 11 -464 4 -609 21 -815 97 -178 65 -186 66 -271 49 -43 -9 -86
-24 -96 -33 -10 -9 -21 -14 -24 -11 -3 3 -24 52 -48 109 l-43 104 -49 -3 c-27
-1 -53 1 -59 5 -19 15 -47 87 -36 91 18 6 13 32 -24 122 -32 79 -33 85 -16 88
11 2 51 -13 90 -32 39 -20 73 -36 76 -36 8 0 -52 92 -81 125 -15 17 -52 56
-82 87 l-56 57 38 16 c50 21 240 30 336 17 42 -6 98 -21 125 -33 60 -27 208
-133 253 -183 18 -20 39 -36 46 -36 33 0 -20 98 -96 178 -46 49 -59 72 -39 72
20 0 180 -155 209 -202 19 -33 37 -37 29 -7 -3 11 -40 83 -82 159 -74 132 -81
142 -159 203 -71 56 -100 71 -233 121 -84 31 -167 59 -185 61 -18 3 35 -18
117 -48 83 -29 166 -61 185 -72 90 -47 207 -155 193 -178 -3 -6 -2 -7 4 -4 5
3 24 -22 42 -56 18 -34 42 -78 53 -97 l21 -35 -39 36 c-21 20 -61 57 -89 83
-27 26 -63 54 -80 62 -27 14 -28 14 -11 0 29 -23 11 -32 -20 -10 -15 11 -38
27 -53 36 -17 12 -20 18 -11 18 9 0 21 -5 27 -11 6 -6 16 -10 23 -7 10 3 -117
71 -175 94 -53 20 -114 32 -162 31 -29 -1 -53 1 -53 6 0 4 7 7 17 7 9 0 14 3
10 6 -3 4 -14 3 -24 -1 -10 -5 -26 -7 -36 -6 -10 1 -25 -3 -33 -10 -16 -13
-26 -5 -37 26 -2 6 -10 5 -19 -3 -13 -10 -17 -10 -21 0 -6 17 -52 21 -78 8
-12 -7 -19 -7 -19 -1 0 5 -8 12 -17 14 -17 4 -17 5 0 6 23 1 22 21 -2 21 -24
0 -33 -31 -14 -49 8 -7 11 -16 7 -20 -4 -3 -9 0 -11 7 -4 10 -8 10 -21 0 -17
-14 -17 -14 4 37 11 27 -53 12 -162 -37 -65 -29 -97 -32 -134 -13 -34 18 -110
85 -110 98 0 12 -81 89 -88 83 -3 -4 15 -28 39 -54 53 -54 89 -101 89 -113 0
-13 -40 13 -40 26 -1 12 -35 55 -45 55 -15 0 -95 41 -95 49 0 5 -30 21 -67 36
-38 15 -75 31 -83 36 -66 39 -107 44 -96 10 4 -9 -8 -1 -24 17 -17 18 -28 37
-25 42 4 6 -1 10 -9 10 -9 0 -16 -3 -16 -7z m47 -371 c-9 -9 -20 -27 -24 -39
-7 -18 -162 -153 -176 -153 -3 0 -23 -16 -44 -35 -21 -19 -42 -35 -48 -35 -14
-1 -118 -135 -128 -165 -9 -26 -21 -32 -32 -15 -4 6 -10 8 -14 6 -4 -3 -13 -1
-21 4 -11 7 -4 23 33 79 54 81 115 141 242 237 119 90 256 165 212 116z m-430
-584 c0 -46 1 -96 3 -111 1 -15 0 -30 -3 -34 -4 -3 -38 -8 -76 -11 l-70 -5 10
37 c5 20 12 50 14 68 2 17 12 36 22 42 10 5 36 29 58 52 22 23 41 43 41 43 1
1 1 -36 1 -81z m28 -197 c8 -27 61 -92 69 -84 3 3 6 1 6 -5 0 -6 -5 -14 -10
-17 -19 -12 0 -25 21 -15 10 6 19 9 19 6 0 -2 3 -13 6 -23 5 -15 4 -16 -5 -3
-10 13 -13 13 -26 -4 -8 -10 -13 -22 -11 -25 2 -3 -2 -11 -9 -18 -11 -10 -15
-6 -24 19 -8 24 -15 29 -28 23 -10 -5 -35 -10 -56 -13 -33 -4 -42 0 -78 37
-33 33 -40 46 -35 65 3 14 2 28 -4 31 -5 3 -10 14 -10 23 0 15 13 18 84 20 76
2 85 1 91 -17z"/>
<path d="M4610 3570 c-105 -97 -100 -93 -100 -76 0 26 -22 30 -40 6 -9 -13
-22 -20 -27 -17 -14 9 -37 -19 -56 -65 -18 -42 -32 -48 -40 -18 -10 39 -25 19
-46 -62 -12 -46 -26 -93 -31 -105 -6 -14 -6 -25 1 -28 8 -6 39 51 39 74 0 5 7
21 15 37 12 23 15 25 21 11 3 -9 10 -17 15 -17 11 0 13 6 29 68 6 23 15 42 20
42 5 0 7 -6 4 -14 -10 -26 15 -27 32 -1 13 20 19 23 25 13 7 -9 20 0 51 37 64
77 151 156 160 147 5 -5 13 -37 19 -73 11 -71 38 -169 50 -183 5 -6 15 6 24
27 19 45 19 58 0 33 -8 -11 -17 -17 -21 -14 -10 10 -32 108 -39 171 -7 64 -11
77 -23 77 -4 0 -41 -32 -82 -70z"/>
<path d="M4638 3390 c-14 -35 -26 -50 -39 -50 -11 0 -19 -7 -19 -15 0 -9 -7
-18 -15 -21 -8 -3 -17 -14 -20 -24 -3 -11 -15 -22 -26 -25 -10 -4 -19 -14 -19
-23 -1 -11 -6 -8 -16 11 -12 21 -22 27 -50 27 -30 0 -35 -4 -40 -30 -4 -16
-10 -27 -15 -25 -4 3 -13 -4 -19 -15 -6 -11 -16 -20 -23 -20 -7 0 -25 -7 -40
-15 -27 -14 -29 -13 -34 4 -3 10 -20 23 -41 29 -48 15 -195 21 -182 8 5 -5 45
-9 87 -8 85 1 109 -9 115 -48 2 -14 9 -24 16 -22 6 1 12 -3 12 -9 0 -6 -7 -9
-15 -5 -11 4 -15 -2 -15 -23 0 -16 -3 -44 -6 -62 -4 -26 -3 -30 5 -19 9 12 11
11 11 -7 0 -25 -16 -39 -24 -21 -3 7 -2 -12 2 -42 9 -73 8 -473 -2 -580 -4
-47 -9 -97 -10 -112 -2 -15 -7 -33 -13 -40 -6 -7 -9 -29 -8 -48 1 -19 -1 -40
-6 -46 -5 -6 -10 -27 -11 -47 -2 -20 -6 -37 -9 -37 -3 0 -7 -21 -7 -46 -1 -25
-7 -55 -14 -67 -6 -12 -11 -24 -11 -27 1 -12 -12 -36 -25 -46 -11 -8 -12 -13
-4 -18 13 -8 16 -49 5 -60 -4 -4 -8 -13 -8 -19 -1 -7 -7 -25 -15 -41 -11 -23
-12 -30 -2 -34 8 -2 9 -9 3 -20 -5 -9 -16 -53 -26 -97 -16 -75 -58 -184 -74
-195 -5 -3 -13 -18 -18 -35 -8 -25 -15 -29 -37 -27 -16 2 -25 -1 -22 -6 3 -5
12 -40 20 -78 8 -38 33 -109 57 -159 23 -49 48 -110 54 -135 l13 -45 1 73 c1
39 5 72 10 72 4 0 16 -36 26 -81 20 -92 63 -195 94 -223 12 -11 21 -25 21 -33
0 -8 19 -33 42 -56 44 -43 68 -92 68 -139 0 -15 5 -30 10 -33 6 -3 10 -1 10 4
0 6 7 11 15 11 8 0 15 5 15 10 0 6 6 10 14 10 14 0 46 57 46 83 0 17 27 30 42
21 6 -4 17 2 25 12 13 18 14 17 8 -8 -10 -39 2 -35 14 5 l9 32 1 -32 c1 -21 8
-36 21 -43 15 -8 20 -21 20 -55 0 -24 5 -47 11 -51 7 -4 9 0 6 12 -9 29 -11
105 -3 144 3 19 8 46 10 60 2 14 7 41 10 60 9 58 29 282 40 465 11 163 42 385
55 385 3 0 14 -20 25 -45 17 -42 79 -105 92 -93 2 3 0 27 -6 53 -19 84 -25
236 -10 245 11 7 11 14 0 39 -11 28 -10 38 15 93 26 59 28 67 22 167 -7 113
-36 292 -61 369 -54 170 -41 407 30 568 41 93 46 107 49 147 3 27 0 37 -11 37
-16 0 -15 8 2 133 5 31 3 36 -10 31 -13 -5 -16 3 -16 52 0 31 -3 54 -6 51 -4
-4 -7 -43 -6 -87 0 -44 -4 -80 -9 -80 -5 0 -12 0 -16 1 -5 0 -10 -10 -13 -22
-3 -12 -11 -24 -18 -27 -9 -3 -11 4 -6 24 6 22 4 26 -8 21 -12 -4 -17 7 -22
55 -3 34 -6 76 -6 94 0 30 -3 34 -26 34 -21 0 -29 -8 -46 -50z"/>
<path d="M3956 2985 c5 -33 8 -170 6 -305 -2 -247 -18 -390 -56 -497 -7 -21
-12 -47 -10 -58 2 -11 -11 -67 -28 -125 -16 -58 -33 -113 -35 -122 -3 -10 -9
-18 -13 -18 -9 0 -24 -37 -41 -100 -19 -69 -21 -74 -66 -167 -43 -89 -86 -129
-151 -136 -44 -5 -180 10 -287 32 -109 22 -335 38 -335 24 0 -5 -6 -10 -12
-10 -102 -3 -351 -83 -465 -149 l-46 -28 7 35 c3 19 11 72 17 119 10 83 67
273 95 317 16 26 17 33 5 33 -11 0 -111 -137 -111 -153 0 -6 9 -1 20 13 l21
25 -12 -27 c-7 -16 -18 -28 -26 -28 -7 0 -13 -5 -13 -11 0 -5 5 -7 10 -4 13 8
13 3 -1 -32 -6 -15 -12 -39 -14 -53 -1 -14 -10 -72 -19 -130 -9 -58 -19 -128
-21 -155 -4 -60 -11 -89 -36 -169 -23 -72 -37 -91 -55 -75 -8 6 -19 7 -31 1
-10 -5 -41 -10 -69 -11 -28 -1 -60 -4 -70 -6 -10 -2 -55 -4 -99 -5 l-80 -2 65
-10 c35 -5 68 -14 72 -21 5 -8 8 -9 8 -1 0 15 52 25 66 13 6 -5 18 -7 25 -5
14 5 43 10 149 26 30 4 58 5 63 1 4 -4 11 -27 16 -52 l9 -44 1 46 c1 25 -5 54
-13 65 -13 17 -17 17 -37 6 -20 -13 -21 -12 -17 5 3 10 20 70 38 133 18 69 40
124 53 138 19 20 115 72 134 72 4 0 49 16 98 36 94 37 200 61 296 68 31 2 62
6 68 10 6 4 11 4 11 -1 0 -4 50 -9 111 -11 61 -1 119 -7 130 -12 10 -6 43 -12
72 -13 29 -2 58 -6 63 -9 5 -4 41 -9 78 -12 56 -4 77 -1 108 15 l39 20 -7 -26
c-5 -20 2 -35 29 -69 32 -38 42 -44 87 -49 28 -3 64 -16 80 -27 l30 -22 34 21
c39 25 61 49 53 58 -4 3 -23 -7 -43 -22 l-36 -27 -50 16 c-28 9 -63 16 -79 16
-19 0 -32 7 -40 23 -6 12 -20 30 -30 40 -19 18 -19 19 6 51 14 18 25 38 25 44
0 6 18 44 40 84 22 41 53 114 70 163 17 50 35 104 41 120 58 164 77 245 143
620 18 103 20 165 6 165 -6 0 -10 -31 -10 -72 0 -51 -3 -68 -10 -58 -13 20
-13 137 0 145 23 14 4 345 -20 369 -10 8 -10 -2 -4 -49z"/>
<path d="M2079 2923 c-8 -2 -32 -43 -53 -92 -20 -49 -46 -97 -57 -107 -10 -9
-19 -25 -19 -36 0 -10 -4 -18 -10 -18 -5 0 -10 -9 -10 -20 0 -11 -6 -20 -12
-20 -10 0 -10 -2 0 -8 13 -8 7 -42 -7 -42 -18 0 -111 230 -111 273 0 30 -19
48 -39 38 -9 -4 -56 -8 -106 -10 -49 -1 -94 -6 -99 -11 -9 -9 20 -100 77 -238
18 -45 37 -79 40 -75 4 4 6 -4 5 -18 -2 -13 2 -23 8 -22 12 2 23 -23 75 -160
16 -43 24 -75 19 -72 -14 9 -13 4 15 -51 14 -27 25 -58 25 -69 0 -17 2 -18 11
-5 9 12 10 11 6 -8 -3 -12 -2 -20 2 -18 4 3 7 -11 7 -30 0 -19 8 -42 17 -52
17 -16 17 -15 2 22 -19 44 -15 52 15 36 18 -10 20 -14 9 -21 -10 -6 -10 -9 -2
-9 7 0 10 -7 6 -16 -5 -13 -3 -15 10 -8 18 11 90 152 178 352 7 17 17 32 20
32 8 0 85 -114 123 -180 14 -25 46 -83 72 -130 55 -100 78 -135 90 -135 5 0 9
7 10 15 0 8 3 22 7 30 3 8 17 60 31 115 38 149 66 246 78 269 6 11 15 36 20
56 12 47 11 45 36 125 12 39 36 122 55 186 l33 116 -113 2 -114 2 6 -23 c5
-21 -16 -88 -97 -311 -10 -28 -11 -28 -52 50 -23 43 -58 101 -78 128 -20 28
-50 76 -68 107 -35 63 -38 66 -61 61z"/>
<path d="M2770 2841 c0 -3 -3 -91 -7 -196 -3 -104 -6 -210 -5 -235 6 -268 11
-373 18 -380 15 -14 177 -16 182 -2 2 6 -1 12 -7 12 -10 0 -7 292 3 309 3 4
20 8 38 9 112 4 244 43 254 74 3 10 9 16 14 13 5 -3 12 0 16 6 4 8 3 9 -4 5
-17 -10 -15 -1 8 36 21 34 28 118 10 118 -6 0 -9 3 -8 8 1 4 -6 31 -17 60 -26
71 -74 125 -122 140 -54 16 -373 36 -373 23z m313 -172 c40 -23 59 -63 46 -92
-14 -32 -39 -45 -98 -53 -49 -6 -51 -6 -52 17 -3 55 4 135 12 145 11 14 55 6
92 -17z"/>
<path d="M3660 2836 c0 -20 -29 -48 -42 -40 -8 5 -77 9 -159 9 -1 0 -3 -106
-5 -235 -2 -129 -5 -296 -8 -370 -5 -140 0 -160 35 -160 11 0 19 -7 19 -16 0
-12 5 -14 18 -9 9 5 41 13 70 18 42 8 55 8 61 -2 6 -9 10 -7 13 7 3 11 2 26
-2 33 -12 18 -11 427 0 529 20 169 23 250 11 250 -6 0 -11 -6 -11 -14z"/>
<path d="M1370 1926 c0 -18 103 -253 131 -298 17 -26 44 -82 61 -125 33 -87
34 -90 54 -186 22 -107 44 -148 108 -198 31 -24 56 -49 56 -56 0 -7 9 -13 20
-13 11 0 20 5 20 11 0 6 -7 9 -15 5 -8 -3 -14 -2 -12 2 1 4 -22 30 -52 57 -63
58 -91 116 -115 232 -9 46 -25 103 -36 129 -11 25 -20 51 -20 57 1 17 88 -81
111 -123 10 -19 18 -30 19 -25 0 6 10 -9 21 -32 18 -39 39 -57 39 -34 0 20
-84 134 -145 197 -36 37 -65 69 -65 71 0 3 -16 23 -35 46 -20 23 -42 62 -49
87 -13 45 -95 213 -96 196z"/>
<path d="M2413 865 l2 -50 -65 -13 c-153 -32 -293 -31 -374 3 -14 6 -17 5 -12
-3 8 -13 -4 -15 -28 -6 -9 3 -16 12 -16 20 0 10 -7 13 -24 8 -14 -3 -29 0 -37
9 -8 7 -19 12 -25 10 -6 -2 -21 6 -34 17 -13 11 -25 18 -28 15 -7 -6 18 -35
31 -35 24 0 117 -54 122 -71 7 -21 -2 -277 -10 -290 -3 -4 5 -15 18 -24 21
-13 25 -26 31 -98 7 -90 27 -130 67 -135 13 -2 31 -10 40 -18 9 -8 18 -12 21
-8 23 22 169 3 161 -22 -6 -19 55 -23 71 -5 8 9 19 56 25 106 10 86 28 168 30
134 1 -23 61 -79 83 -79 23 0 23 5 -3 46 -11 18 -36 93 -55 165 -29 110 -34
141 -28 190 4 37 11 59 19 59 28 0 38 28 27 77 l-11 48 2 -50z"/>
</g>
</svg>
